# xmcd
# 
# Track frame offsets:
#     150
#     4234
#     29495
#     59991
#     92228
#     104803
#     113405
#     137898
#     149531
#     157905
#     203414
#     210303
#     239029
#     249206
# 
# Disc length: 3478
# 
# Revision: 1
# Processed by: cddbd v1.5.2PL0 Copyright (c) Steve Scherf et al.
# Submitted via: BonkEnc v1.0.8
# 
DISCID=c90d940e
DTITLE=Orchestre National De Jazz - [Franck Tortiller] Closed To Heaven
DYEAR=2005
DGENRE=Big Band
TTITLE0=Beware The Black Dog
TTITLE1=Black Dog
TTITLE2=The Rain Song
TTITLE3=Dazed And Confused
TTITLE4=Black Montain Side
TTITLE5=Chill Out, Honey Drip
TTITLE6=Four Sticks
TTITLE7=Close To Heaven, Part I
TTITLE8=Close To Heaven, Part II
TTITLE9=Stairway To Heaven
TTITLE10=Before Kashmir
TTITLE11=Kashmir
TTITLE12=Moby And Moby
TTITLE13=No Quarter
EXTD=YEAR: 2005
EXTT0=
EXTT1=
EXTT2=
EXTT3=
EXTT4=
EXTT5=
EXTT6=
EXTT7=
EXTT8=
EXTT9=
EXTT10=
EXTT11=
EXTT12=
EXTT13=
PLAYORDER=
